<svg width="40" height="40" viewBox="0 0 40 40" fill="none" xmlns="http://www.w3.org/2000/svg">
<path d="M32.9954 15C31.6681 15 30.3953 15.5272 29.4567 16.4658C28.5185 17.4044 27.9909 18.6772 27.9909 20.0046C27.9909 21.3319 28.5184 22.6047 29.4567 23.5433C30.3953 24.4819 31.6681 25.0091 32.9954 25.0091C34.3228 25.0091 35.5959 24.482 36.5342 23.5433C37.4728 22.6047 38 21.3319 38 20.0046C38 18.6772 37.4728 17.4044 36.5342 16.4658C35.5959 15.5272 34.3228 15 32.9954 15V15ZM32.9954 22.76C32.2647 22.76 31.5642 22.4697 31.0472 21.9528C30.5307 21.4362 30.2404 20.7353 30.2404 20.0045C30.2404 19.2738 30.5307 18.5729 31.0472 18.0563C31.5642 17.5394 32.2647 17.2491 32.9954 17.2491C33.7262 17.2491 34.4271 17.5394 34.944 18.0563C35.4606 18.5729 35.7509 19.2738 35.7509 20.0045C35.7509 20.7353 35.4606 21.4362 34.944 21.9528C34.4271 22.4697 33.7261 22.76 32.9954 22.76Z" fill="white"/>
<path d="M19.5 15C18.1727 15 16.8998 15.5272 15.9613 16.4658C15.0226 17.4044 14.4954 18.6772 14.4954 20.0046C14.4954 21.3319 15.0226 22.6047 15.9613 23.5433C16.8999 24.4819 18.1727 25.0091 19.5 25.0091C20.8274 25.0091 22.1002 24.482 23.0387 23.5433C23.9774 22.6047 24.5046 21.3319 24.5046 20.0046C24.5046 18.6772 23.9774 17.4044 23.0387 16.4658C22.1001 15.5272 20.8274 15 19.5 15ZM19.5 22.76C18.7693 22.76 18.0683 22.4697 17.5518 21.9528C17.0348 21.4362 16.7446 20.7353 16.7446 20.0045C16.7446 19.2738 17.0348 18.5729 17.5518 18.0563C18.0684 17.5394 18.7693 17.2491 19.5 17.2491C20.2307 17.2491 20.9317 17.5394 21.4482 18.0563C21.9652 18.5729 22.2554 19.2738 22.2554 20.0045C22.2554 20.7353 21.9652 21.4362 21.4482 21.9528C20.9316 22.4697 20.2307 22.76 19.5 22.76Z" fill="white"/>
<path d="M6.00456 15C4.67721 15 3.40408 15.5272 2.46582 16.4658C1.5272 17.4044 1 18.6772 1 20.0046C1 21.3319 1.52717 22.6047 2.46582 23.5433C3.40406 24.4819 4.67721 25.0091 6.00456 25.0091C7.33192 25.0091 8.60474 24.482 9.5433 23.5433C10.4815 22.6047 11.0091 21.3319 11.0091 20.0046C11.0091 18.6772 10.4816 17.4044 9.5433 16.4658C8.60467 15.5272 7.33192 15 6.00456 15ZM6.00456 22.76C5.27383 22.76 4.57288 22.4697 4.05596 21.9528C3.53938 21.4362 3.24912 20.7353 3.24912 20.0045C3.24912 19.2738 3.53937 18.5729 4.05596 18.0563C4.57292 17.5394 5.27386 17.2491 6.00456 17.2491C6.73529 17.2491 7.43584 17.5394 7.95277 18.0563C8.46934 18.5729 8.7596 19.2738 8.7596 20.0045C8.7596 20.7353 8.46935 21.4362 7.95277 21.9528C7.4358 22.4697 6.73526 22.76 6.00456 22.76V22.76Z" fill="white"/>
</svg>
